<svg width="24" height="25" viewBox="0 0 24 25" fill="none" xmlns="http://www.w3.org/2000/svg">
<path d="M2.49954 9.5H21.4995M9.99954 3.5L7.99954 9.5L11.9995 21L15.9995 9.5L13.9995 3.5M12.6141 20.7625L21.5727 10.0121C21.7246 9.82995 21.8005 9.73885 21.8295 9.63717C21.8551 9.54751 21.8551 9.45249 21.8295 9.36283C21.8005 9.26114 21.7246 9.17005 21.5727 8.98785L17.2394 3.78785C17.1512 3.68204 17.1072 3.62914 17.0531 3.59111C17.0052 3.55741 16.9518 3.53238 16.8953 3.51717C16.8314 3.5 16.7626 3.5 16.6248 3.5H7.37424C7.2365 3.5 7.16764 3.5 7.10382 3.51717C7.04728 3.53238 6.99385 3.55741 6.94596 3.59111C6.89192 3.62914 6.84783 3.68204 6.75966 3.78785L2.42633 8.98785C2.2745 9.17004 2.19858 9.26114 2.16957 9.36283C2.144 9.45249 2.144 9.54751 2.16957 9.63716C2.19858 9.73885 2.2745 9.82995 2.42633 10.0121L11.385 20.7625C11.596 21.0158 11.7015 21.1424 11.8279 21.1886C11.9387 21.2291 12.0603 21.2291 12.1712 21.1886C12.2975 21.1424 12.4031 21.0158 12.6141 20.7625Z" stroke="white" stroke-width="1.5" stroke-linecap="round" stroke-linejoin="round"/>
</svg>
